# xmcd
#
# Track frame offsets: 
#        180
#        6270
#        31925
#        56402
#        90657
#        123472
#        139010
#        166775
#        200317
#        224535
#        242750
#        254905
#        295422
#
# Disc length: 4279 seconds
#
# Revision: 1
# Processed by: cddbd v1.5.2PL0 Copyright (c) Steve Scherf et al.
# Submitted via: ExactAudioCopy v1.0b6
#
DISCID=be10b50d
DTITLE=Various Artist - Submerge Depth Charge 4
DYEAR=1996
DGENRE=Techno
TTITLE0=Alpha UR-040
TTITLE1=Octave One - Eniac
TTITLE2=M5003MB - Cosmic Courier
TTITLE3=Thomas Barnett - Re-Synthesize
TTITLE4=The Martian - Ghostdancer
TTITLE5=Gigi Galaxy - One Step Beyond
TTITLE6=Posatronix - Posatronix
TTITLE7=Andre Holland - Inversions
TTITLE8=Project X - Project X (Big Trouble Mix)
TTITLE9=DJ T-1000 - Perfect Skin
TTITLE10=Vice - Homeboy
TTITLE11=Gigi Galaxy - Phantom
TTITLE12=Missing Channel - The Edge Of Infinity
EXTD=
EXTT0=
EXTT1=
EXTT2=
EXTT3=
EXTT4=
EXTT5=
EXTT6=
EXTT7=
EXTT8=
EXTT9=
EXTT10=
EXTT11=
EXTT12=
PLAYORDER=
